<?xml version="1.0" encoding="UTF-8"?>
<!DOCTYPE svg PUBLIC "-//W3C//DTD SVG 1.1//EN" "http://www.w3.org/Graphics/SVG/1.1/DTD/svg11.dtd">
<svg xmlns="http://www.w3.org/2000/svg" version="1.1" width="177px" height="179px" style="shape-rendering:geometricPrecision; text-rendering:geometricPrecision; image-rendering:optimizeQuality; fill-rule:evenodd; clip-rule:evenodd" xmlns:xlink="http://www.w3.org/1999/xlink">
<g><path style="opacity:1" fill="#69ad13" d="M 58.5,-0.5 C 60.5,-0.5 62.5,-0.5 64.5,-0.5C 66.5,0.5 68.5,1.5 70.5,2.5C 69.5,2.5 68.5,2.5 67.5,2.5C 67.5,6.16667 67.5,9.83333 67.5,13.5C 66.209,13.2627 65.209,13.596 64.5,14.5C 62.1708,12.722 59.5042,11.722 56.5,11.5C 54.7085,11.366 53.0418,11.6993 51.5,12.5C 52.16,7.12253 54.4934,2.7892 58.5,-0.5 Z"/></g>
<g><path style="opacity:1" fill="#92d414" d="M 70.5,2.5 C 80.45,5.13763 88.7833,10.3043 95.5,18C 94.944,18.3826 94.6107,18.8826 94.5,19.5C 93.8902,20.391 93.5569,21.391 93.5,22.5C 93.6716,23.4916 93.3382,24.1583 92.5,24.5C 90.602,25.0965 88.9354,25.0965 87.5,24.5C 88.9063,24.0269 89.573,23.0269 89.5,21.5C 90.0431,21.44 90.3764,21.1067 90.5,20.5C 88.6675,19.7515 87.0009,18.7515 85.5,17.5C 82.2889,19.6004 79.2889,21.9337 76.5,24.5C 72.7921,20.7899 68.7921,17.4566 64.5,14.5C 65.209,13.596 66.209,13.2627 67.5,13.5C 67.5,9.83333 67.5,6.16667 67.5,2.5C 68.5,2.5 69.5,2.5 70.5,2.5 Z"/></g>
<g><path style="opacity:1" fill="#346315" d="M 56.5,11.5 C 55.7375,12.2679 54.7375,12.7679 53.5,13C 54.4162,13.3742 55.2496,13.8742 56,14.5C 57.4451,17.0904 58.6118,19.757 59.5,22.5C 61.099,22.2322 62.4324,22.5655 63.5,23.5C 61.8561,23.2865 60.3561,23.6198 59,24.5C 58.5045,26.4727 58.3379,28.4727 58.5,30.5C 56.1633,28.3336 53.6633,26.3336 51,24.5C 49.224,20.3336 49.3906,16.3336 51.5,12.5C 53.0418,11.6993 54.7085,11.366 56.5,11.5 Z"/></g>
<g><path style="opacity:1" fill="#5bae09" d="M 89.5,21.5 C 86.6273,20.1096 84.9606,21.1096 84.5,24.5C 85.5,24.5 86.5,24.5 87.5,24.5C 88.9354,25.0965 90.602,25.0965 92.5,24.5C 87.1517,27.3996 81.4851,29.7329 75.5,31.5C 75.448,29.0971 75.7814,26.7638 76.5,24.5C 79.2889,21.9337 82.2889,19.6004 85.5,17.5C 87.0009,18.7515 88.6675,19.7515 90.5,20.5C 90.3764,21.1067 90.0431,21.44 89.5,21.5 Z"/></g>
<g><path style="opacity:1" fill="#36740f" d="M 89.5,21.5 C 89.573,23.0269 88.9063,24.0269 87.5,24.5C 86.5,24.5 85.5,24.5 84.5,24.5C 84.9606,21.1096 86.6273,20.1096 89.5,21.5 Z"/></g>
<g><path style="opacity:1" fill="#192615" d="M 102.5,18.5 C 103.552,18.3505 104.552,18.5172 105.5,19C 104.283,22.4657 104.283,25.9657 105.5,29.5C 105.5,30.1667 105.167,30.5 104.5,30.5C 102.621,27.8852 100.288,25.7186 97.5,24C 96.255,23.2086 94.9217,22.7086 93.5,22.5C 93.5569,21.391 93.8902,20.391 94.5,19.5C 97.0961,18.7347 99.7628,18.4013 102.5,18.5 Z"/></g>
<g><path style="opacity:1" fill="#151615" d="M 63.5,23.5 C 65.8525,24.3403 67.8525,25.6736 69.5,27.5C 67.0359,27.8243 64.3692,27.991 61.5,28C 60.6266,29.045 59.6266,29.8783 58.5,30.5C 58.3379,28.4727 58.5045,26.4727 59,24.5C 60.3561,23.6198 61.8561,23.2865 63.5,23.5 Z"/></g>
<g><path style="opacity:1" fill="#3c8005" d="M 56.5,11.5 C 59.5042,11.722 62.1708,12.722 64.5,14.5C 68.7921,17.4566 72.7921,20.7899 76.5,24.5C 75.7814,26.7638 75.448,29.0971 75.5,31.5C 74.8333,31.1667 74.1667,30.8333 73.5,30.5C 72.205,29.5116 70.8717,28.5116 69.5,27.5C 67.8525,25.6736 65.8525,24.3403 63.5,23.5C 62.4324,22.5655 61.099,22.2322 59.5,22.5C 58.6118,19.757 57.4451,17.0904 56,14.5C 55.2496,13.8742 54.4162,13.3742 53.5,13C 54.7375,12.7679 55.7375,12.2679 56.5,11.5 Z"/></g>
<g><path style="opacity:1" fill="#36621a" d="M 102.5,18.5 C 105.5,17.1667 108.5,17.1667 111.5,18.5C 111.634,20.2915 111.301,21.9582 110.5,23.5C 110.167,23.5 109.833,23.5 109.5,23.5C 108.167,25.5 106.833,27.5 105.5,29.5C 104.283,25.9657 104.283,22.4657 105.5,19C 104.552,18.5172 103.552,18.3505 102.5,18.5 Z"/></g>
<g><path style="opacity:1" fill="#eeeeee" d="M 80.5,49.5 C 78.4463,45.9416 75.7797,42.7749 72.5,40C 71.552,39.5172 70.552,39.3505 69.5,39.5C 69.7845,36.7462 70.4512,34.0795 71.5,31.5C 72.4776,31.9767 73.3109,32.6433 74,33.5C 79.6087,31.8863 85.1087,29.8863 90.5,27.5C 102.728,31.835 103.728,38.335 93.5,47C 89.0351,47.8741 84.7017,48.7074 80.5,49.5 Z"/></g>
<g><path style="opacity:1" fill="#c3c3c4" d="M 93.5,22.5 C 94.9217,22.7086 96.255,23.2086 97.5,24C 100.288,25.7186 102.621,27.8852 104.5,30.5C 104.5,32.1667 104.5,33.8333 104.5,35.5C 104.663,37.8568 104.497,40.1902 104,42.5C 98.1505,48.6749 90.9838,52.0082 82.5,52.5C 81.0937,52.0269 80.427,51.0269 80.5,49.5C 84.7017,48.7074 89.0351,47.8741 93.5,47C 103.728,38.335 102.728,31.835 90.5,27.5C 85.1087,29.8863 79.6087,31.8863 74,33.5C 73.3109,32.6433 72.4776,31.9767 71.5,31.5C 70.4512,34.0795 69.7845,36.7462 69.5,39.5C 68.5084,39.3284 67.8417,39.6618 67.5,40.5C 65.8828,41.038 64.2161,41.3713 62.5,41.5C 60.4723,32.1944 64.1389,28.5277 73.5,30.5C 74.1667,30.8333 74.8333,31.1667 75.5,31.5C 81.4851,29.7329 87.1517,27.3996 92.5,24.5C 93.3382,24.1583 93.6716,23.4916 93.5,22.5 Z"/></g>
<g><path style="opacity:1" fill="#58a706" d="M 109.5,23.5 C 113.396,26.1297 117.396,28.7963 121.5,31.5C 120.244,32.0302 118.744,32.0302 117,31.5C 115.728,37.3182 113.062,37.9848 109,33.5C 107.915,34.7356 107.082,36.0689 106.5,37.5C 105.833,36.8333 105.167,36.1667 104.5,35.5C 104.5,33.8333 104.5,32.1667 104.5,30.5C 105.167,30.5 105.5,30.1667 105.5,29.5C 106.833,27.5 108.167,25.5 109.5,23.5 Z"/></g>
<g><path style="opacity:1" fill="#76b81e" d="M 111.5,18.5 C 117.288,19.0379 122.455,21.0379 127,24.5C 129.11,28.3857 130.943,32.3857 132.5,36.5C 132.332,38.1705 131.665,39.5039 130.5,40.5C 130.799,38.396 130.466,36.396 129.5,34.5C 125.652,32.88 123.819,30.2134 124,26.5C 123.586,26.9574 123.086,27.2907 122.5,27.5C 118.783,25.3246 114.783,23.9913 110.5,23.5C 111.301,21.9582 111.634,20.2915 111.5,18.5 Z"/></g>
<g><path style="opacity:1" fill="#787879" d="M 69.5,27.5 C 70.8717,28.5116 72.205,29.5116 73.5,30.5C 64.1389,28.5277 60.4723,32.1944 62.5,41.5C 60.1944,41.9926 57.861,42.3259 55.5,42.5C 55.5,41.5 55.5,40.5 55.5,39.5C 55.5152,36.1209 56.5152,33.1209 58.5,30.5C 59.6266,29.8783 60.6266,29.045 61.5,28C 64.3692,27.991 67.0359,27.8243 69.5,27.5 Z"/></g>
<g><path style="opacity:1" fill="#82cb1d" d="M 109.5,23.5 C 109.833,23.5 110.167,23.5 110.5,23.5C 114.783,23.9913 118.783,25.3246 122.5,27.5C 123.086,27.2907 123.586,26.9574 124,26.5C 123.819,30.2134 125.652,32.88 129.5,34.5C 130.466,36.396 130.799,38.396 130.5,40.5C 129.4,41.5585 128.066,42.3918 126.5,43C 121.657,43.7794 116.824,44.6127 112,45.5C 109.849,44.8334 108.349,43.5001 107.5,41.5C 107.167,40.1667 106.833,38.8333 106.5,37.5C 107.082,36.0689 107.915,34.7356 109,33.5C 113.062,37.9848 115.728,37.3182 117,31.5C 118.744,32.0302 120.244,32.0302 121.5,31.5C 117.396,28.7963 113.396,26.1297 109.5,23.5 Z"/></g>
<g><path style="opacity:1" fill="#a8e50e" d="M 55.5,39.5 C 55.5,40.5 55.5,41.5 55.5,42.5C 57.861,42.3259 60.1944,41.9926 62.5,41.5C 64.2161,41.3713 65.8828,41.038 67.5,40.5C 69.1439,40.2865 70.6439,40.6198 72,41.5C 73.1488,44.3926 73.6488,47.3926 73.5,50.5C 64.0442,53.3242 54.3775,54.9909 44.5,55.5C 45.209,54.596 46.209,54.2627 47.5,54.5C 48.4549,51.1892 49.7882,48.0226 51.5,45C 48.854,44.5026 46.1873,44.3359 43.5,44.5C 42.391,44.4431 41.391,44.1098 40.5,43.5C 42.4018,39.0534 45.7351,36.8867 50.5,37C 51.9101,38.3717 53.5767,39.205 55.5,39.5 Z"/></g>
<g><path style="opacity:1" fill="#66ab0e" d="M 40.5,43.5 C 41.391,44.1098 42.391,44.4431 43.5,44.5C 43.8281,47.6851 43.8281,51.0184 43.5,54.5C 41.5853,54.2155 39.9187,54.5489 38.5,55.5C 37.8333,55.5 37.1667,55.5 36.5,55.5C 36.0481,51.0342 37.3815,47.0342 40.5,43.5 Z"/></g>
<g><path style="opacity:1" fill="#78c214" d="M 67.5,40.5 C 67.8417,39.6618 68.5084,39.3284 69.5,39.5C 70.552,39.3505 71.552,39.5172 72.5,40C 75.7797,42.7749 78.4463,45.9416 80.5,49.5C 80.427,51.0269 81.0937,52.0269 82.5,52.5C 83.8333,55.1667 83.8333,57.8333 82.5,60.5C 82.1667,61.5 81.5,62.1667 80.5,62.5C 78.668,58.1638 76.3346,54.1638 73.5,50.5C 73.6488,47.3926 73.1488,44.3926 72,41.5C 70.6439,40.6198 69.1439,40.2865 67.5,40.5 Z"/></g>
<g><path style="opacity:1" fill="#85c803" d="M 43.5,44.5 C 46.1873,44.3359 48.854,44.5026 51.5,45C 49.7882,48.0226 48.4549,51.1892 47.5,54.5C 46.209,54.2627 45.209,54.596 44.5,55.5C 42.5,55.5 40.5,55.5 38.5,55.5C 39.9187,54.5489 41.5853,54.2155 43.5,54.5C 43.8281,51.0184 43.8281,47.6851 43.5,44.5 Z"/></g>
<g><path style="opacity:1" fill="#929295" d="M 104.5,35.5 C 105.167,36.1667 105.833,36.8333 106.5,37.5C 106.833,38.8333 107.167,40.1667 107.5,41.5C 107.167,43.5 106.833,45.5 106.5,47.5C 100.715,49.5597 95.0482,51.893 89.5,54.5C 88.5386,56.2646 88.2053,58.2646 88.5,60.5C 86.5,60.5 84.5,60.5 82.5,60.5C 83.8333,57.8333 83.8333,55.1667 82.5,52.5C 90.9838,52.0082 98.1505,48.6749 104,42.5C 104.497,40.1902 104.663,37.8568 104.5,35.5 Z"/></g>
<g><path style="opacity:1" fill="#4da10a" d="M 73.5,50.5 C 76.3346,54.1638 78.668,58.1638 80.5,62.5C 78.9724,63.3092 77.3057,63.9759 75.5,64.5C 70.0222,66.3949 64.3555,67.3949 58.5,67.5C 54.4659,67.4955 50.4659,67.1621 46.5,66.5C 46.6582,63.4545 45.9915,60.6212 44.5,58C 45.8333,57.6667 47.1667,57.3333 48.5,57C 44.9748,56.8213 41.6414,56.3213 38.5,55.5C 40.5,55.5 42.5,55.5 44.5,55.5C 54.3775,54.9909 64.0442,53.3242 73.5,50.5 Z"/></g>
<g><path style="opacity:1" fill="#b4f411" d="M 106.5,47.5 C 109.477,49.4667 112.477,51.4667 115.5,53.5C 115.127,56.5739 114.461,59.5739 113.5,62.5C 108.156,62.666 102.823,62.4994 97.5,62C 95.6491,60.2476 93.6491,58.7476 91.5,57.5C 90.4489,56.7777 89.7822,55.7777 89.5,54.5C 95.0482,51.893 100.715,49.5597 106.5,47.5 Z"/></g>
<g><path style="opacity:1" fill="#5ca610" d="M 106.5,54.5 C 111.64,55.7646 111.64,57.4313 106.5,59.5C 105.646,58.4783 104.646,57.6449 103.5,57C 104.571,56.1482 105.571,55.3149 106.5,54.5 Z"/></g>
<g><path style="opacity:1" fill="#4f852a" d="M 36.5,55.5 C 37.1667,55.5 37.8333,55.5 38.5,55.5C 41.6414,56.3213 44.9748,56.8213 48.5,57C 47.1667,57.3333 45.8333,57.6667 44.5,58C 45.9915,60.6212 46.6582,63.4545 46.5,66.5C 50.4659,67.1621 54.4659,67.4955 58.5,67.5C 53.5663,68.9077 48.5663,68.741 43.5,67C 40.9411,63.281 38.6078,59.4477 36.5,55.5 Z"/></g>
<g><path style="opacity:1" fill="#53a413" d="M 115.5,53.5 C 116.839,58.4876 116.505,63.4876 114.5,68.5C 111.104,69.1552 107.604,69.1552 104,68.5C 101.705,68.5465 99.8714,69.2132 98.5,70.5C 98.2671,72.0618 97.6005,73.3951 96.5,74.5C 95.391,74.5569 94.391,74.8902 93.5,75.5C 90.4582,75.2671 87.7916,74.2671 85.5,72.5C 87.4762,67.5884 89.4762,62.5884 91.5,57.5C 93.6491,58.7476 95.6491,60.2476 97.5,62C 102.823,62.4994 108.156,62.666 113.5,62.5C 114.461,59.5739 115.127,56.5739 115.5,53.5 Z"/></g>
<g><path style="opacity:1" fill="#1c2718" d="M 82.5,60.5 C 84.5,60.5 86.5,60.5 88.5,60.5C 88.5858,61.4959 88.2524,62.3292 87.5,63C 85.7444,63.2022 84.0777,63.7022 82.5,64.5C 81.7222,66.3835 81.3889,68.0502 81.5,69.5C 78.8908,68.5569 76.8908,66.8903 75.5,64.5C 77.3057,63.9759 78.9724,63.3092 80.5,62.5C 81.5,62.1667 82.1667,61.5 82.5,60.5 Z"/></g>
<g><path style="opacity:1" fill="#377011" d="M 89.5,54.5 C 89.7822,55.7777 90.4489,56.7777 91.5,57.5C 89.4762,62.5884 87.4762,67.5884 85.5,72.5C 83.7697,71.9744 82.4363,70.9744 81.5,69.5C 81.3889,68.0502 81.7222,66.3835 82.5,64.5C 84.0777,63.7022 85.7444,63.2022 87.5,63C 88.2524,62.3292 88.5858,61.4959 88.5,60.5C 88.2053,58.2646 88.5386,56.2646 89.5,54.5 Z"/></g>
<g><path style="opacity:1" fill="#40840d" d="M 114.5,68.5 C 114.405,70.7857 113.738,72.7857 112.5,74.5C 108.126,72.8924 103.46,71.5591 98.5,70.5C 99.8714,69.2132 101.705,68.5465 104,68.5C 107.604,69.1552 111.104,69.1552 114.5,68.5 Z"/></g>
<g><path style="opacity:1" fill="#285903" d="M 98.5,70.5 C 103.46,71.5591 108.126,72.8924 112.5,74.5C 112.167,75.5 111.5,76.1667 110.5,76.5C 105.971,75.7265 101.305,75.0599 96.5,74.5C 97.6005,73.3951 98.2671,72.0618 98.5,70.5 Z"/></g>
<g><path style="opacity:1" fill="#334b28" d="M 96.5,74.5 C 101.305,75.0599 105.971,75.7265 110.5,76.5C 109.508,78.0265 108.008,78.6932 106,78.5C 101.574,78.053 97.4075,77.053 93.5,75.5C 94.391,74.8902 95.391,74.5569 96.5,74.5 Z"/></g>
<g><path style="opacity:0.876" fill="#2f6701" d="M 27.5,92.5 C 30.1873,92.3359 32.854,92.5026 35.5,93C 38.8898,94.0062 39.8898,96.0062 38.5,99C 32.1789,97.4554 26.6789,98.9554 22,103.5C 19.3461,110.884 21.6795,115.884 29,118.5C 33.2583,117.702 34.4249,115.369 32.5,111.5C 29.8738,112.58 27.3738,112.246 25,110.5C 24.2797,108.888 24.4464,107.388 25.5,106C 30.5,105.333 35.5,105.333 40.5,106C 41.0585,106.725 41.3918,107.558 41.5,108.5C 39.9079,112.267 39.0745,116.267 39,120.5C 28.2968,127.264 20.2968,124.931 15,113.5C 12.7487,102.601 16.9153,95.6011 27.5,92.5 Z"/></g>
<g><path style="opacity:0.895" fill="#2f6701" d="M 74.5,92.5 C 77.0444,92.1043 79.2111,92.771 81,94.5C 83.5877,98.674 85.921,103.007 88,107.5C 92.9252,109.024 93.7585,111.858 90.5,116C 91.4929,118.453 91.6595,120.953 91,123.5C 89.3333,124.833 87.6667,124.833 86,123.5C 84.9787,120.895 84.1454,118.228 83.5,115.5C 79.8927,114.511 76.226,114.177 72.5,114.5C 72.3215,117.216 71.8215,119.883 71,122.5C 68.8797,125.08 66.713,125.08 64.5,122.5C 58.2182,123.626 51.8849,123.793 45.5,123C 44.5144,113.25 44.181,103.416 44.5,93.5C 46.5,93.5 48.5,93.5 50.5,93.5C 50.5,101.5 50.5,109.5 50.5,117.5C 54.8461,117.334 59.1794,117.501 63.5,118C 64,118.5 64.5,119 65,119.5C 67.0843,110.079 70.2509,101.079 74.5,92.5 Z M 77.5,102.5 C 79.539,103.911 80.539,105.911 80.5,108.5C 78.8333,108.5 77.1667,108.5 75.5,108.5C 75.6036,106.297 76.2702,104.297 77.5,102.5 Z"/></g>
<g><path style="opacity:0.883" fill="#2f6701" d="M 126.5,93.5 C 132.167,93.5 137.833,93.5 143.5,93.5C 143.739,95.4672 143.406,97.3005 142.5,99C 138.514,99.4988 134.514,99.6655 130.5,99.5C 130.5,101.833 130.5,104.167 130.5,106.5C 134.182,106.335 137.848,106.501 141.5,107C 142.86,108.938 142.527,110.604 140.5,112C 137.183,112.498 133.85,112.665 130.5,112.5C 130.261,114.467 130.594,116.301 131.5,118C 135.121,117.595 138.787,117.595 142.5,118C 143.833,119.667 143.833,121.333 142.5,123C 136.42,125.155 130.42,124.989 124.5,122.5C 123.576,113.511 123.076,104.511 123,95.5C 124.302,94.9152 125.469,94.2485 126.5,93.5 Z"/></g>
<g><path style="opacity:0.887" fill="#2f6701" d="M 94.5,95.5 C 102.752,95.1842 110.919,95.5175 119,96.5C 119.52,98.2889 119.187,99.9556 118,101.5C 112.856,106.313 108.023,111.48 103.5,117C 108.833,117.333 114.167,117.667 119.5,118C 120.747,119.494 120.747,120.994 119.5,122.5C 116.611,123.639 113.611,124.306 110.5,124.5C 105.977,123.369 101.477,123.369 97,124.5C 93.3032,123.074 92.6365,120.74 95,117.5C 98.7873,112.044 102.954,106.877 107.5,102C 103.167,101.667 98.8333,101.333 94.5,101C 93.2475,99.1722 93.2475,97.3388 94.5,95.5 Z"/></g>
<g><path style="opacity:0.86" fill="#60ab25" d="M 10.5,138.5 C 16.31,138.122 21.9766,138.789 27.5,140.5C 26.4196,142.996 25.0862,145.33 23.5,147.5C 17.3185,142.964 12.3185,143.964 8.5,150.5C 11.3554,156.064 15.6888,157.564 21.5,155C 22.1258,154.25 22.6258,153.416 23,152.5C 25.3157,154.47 27.1491,156.804 28.5,159.5C 22.616,161.324 16.616,161.824 10.5,161C 1.12367,157.104 -0.876326,150.771 4.5,142C 6.43191,140.541 8.43191,139.375 10.5,138.5 Z"/></g>
<g><path style="opacity:0.923" fill="#60ab25" d="M 83.5,138.5 C 84.7251,139.152 85.3917,140.319 85.5,142C 85.1667,143.167 84.8333,144.333 84.5,145.5C 79.8999,144.557 75.2332,144.223 70.5,144.5C 70.5,145.5 70.5,146.5 70.5,147.5C 73.5788,147.74 76.5788,147.407 79.5,146.5C 80.8333,148.833 80.8333,151.167 79.5,153.5C 76.5788,152.593 73.5788,152.26 70.5,152.5C 70.5,153.833 70.5,155.167 70.5,156.5C 74.8461,156.666 79.1794,156.499 83.5,156C 84,155.5 84.5,155 85,154.5C 85.8184,157.227 85.6517,159.894 84.5,162.5C 77.2159,161.7 69.8826,161.2 62.5,161C 63.8333,154 63.8333,147 62.5,140C 69.6787,139.829 76.6787,139.329 83.5,138.5 Z"/></g>
<g><path style="opacity:0.923" fill="#60ab25" d="M 134.5,138.5 C 142.137,139.831 149.803,139.831 157.5,138.5C 158.833,140.833 158.833,143.167 157.5,145.5C 154.916,144.607 152.249,144.274 149.5,144.5C 148.913,150.303 149.58,155.803 151.5,161C 148.167,161.667 144.833,161.667 141.5,161C 142.473,155.593 142.807,150.093 142.5,144.5C 139.881,144.232 137.381,144.565 135,145.5C 134.503,143.19 134.337,140.857 134.5,138.5 Z"/></g>
<g><path style="opacity:0.908" fill="#60ab25" d="M 32.5,140.5 C 39.3209,139.345 46.3209,139.179 53.5,140C 57.1241,142.161 58.2907,145.328 57,149.5C 55.401,151.056 53.901,152.723 52.5,154.5C 54.2877,156.576 55.9544,158.743 57.5,161C 54.5184,161.498 51.5184,161.665 48.5,161.5C 47.4611,157.128 44.7945,154.461 40.5,153.5C 40.2317,156.119 40.565,158.619 41.5,161C 38.5,161.667 35.5,161.667 32.5,161C 33.8265,154.068 33.8265,147.235 32.5,140.5 Z M 40.5,144.5 C 43.1873,144.336 45.854,144.503 48.5,145C 51.1667,146 51.1667,147 48.5,148C 45.854,148.497 43.1873,148.664 40.5,148.5C 40.5,147.167 40.5,145.833 40.5,144.5 Z"/></g>
<g><path style="opacity:0.903" fill="#60ab25" d="M 90.5,140.5 C 93.6491,139.835 96.9825,139.502 100.5,139.5C 115.301,138.471 119.801,144.804 114,158.5C 112.581,159.46 111.081,160.293 109.5,161C 103.167,161.667 96.8333,161.667 90.5,161C 91.8265,154.068 91.8265,147.235 90.5,140.5 Z M 98.5,144.5 C 101.649,144.211 104.649,144.711 107.5,146C 110.167,149 110.167,152 107.5,155C 104.649,156.289 101.649,156.789 98.5,156.5C 98.5,152.5 98.5,148.5 98.5,144.5 Z"/></g>
<g><path style="opacity:0.896" fill="#60ab25" d="M 120.5,140.5 C 123.64,139.359 126.973,139.192 130.5,140C 129.167,147 129.167,154 130.5,161C 127.167,161.667 123.833,161.667 120.5,161C 121.786,157.767 122.453,154.267 122.5,150.5C 122.486,146.761 121.82,143.428 120.5,140.5 Z"/></g>
</svg>
